<svg version="1.1" id="Layer_1" xmlns="http://www.w3.org/2000/svg" xmlns:xlink="http://www.w3.org/1999/xlink" x="0px" y="0px" viewBox="0 0 702.6 520.7" enable-background="new 0 0 702.6 520.7" xml:space="preserve">
    <g>
        <path fill="#ED1C24" d="M689.2,3L150.8,3c-6.7,0-13.4,5.2-15.2,11.6L4.4,504.6c-1.7,6.4,2.3,11.6,8.8,11.6h538.4
        c6.6,0,13.3-5.2,15-11.6L698,14.6C699.8,8.2,695.7,3,689.2,3z M657.2,44.8L542.4,474.7c-1.5,5.7-7.4,10.3-13.3,10.3h-476
        c-5.8,0-9.3-4.6-7.8-10.3L160,44.8c1.5-5.7,7.5-10.2,13.4-10.2h476C655.2,34.5,658.7,39.1,657.2,44.8z"></path>
        <path fill="#ED1C24" d="M524.1,359.1V158c0-1.9-1.5-3.4-3.4-3.4l-86.2,10.3c-1.6,0.2-2.8,1.6-2.9,3.3V219h0c0,1.9,1.5,3.4,3.4,3.4
            l23.3-2.6c0,0,0,98.7,0,110.8c0,16.2,14.4,31.9,37.1,31.9c12.2,0,20.9,0,25.3,0C522.6,362.4,524.1,360.9,524.1,359.1z"></path>
        <path fill="#ED1C24" d="M366.8,154.7h-28.4l0,0c-1.9,0-3.4,1.5-3.4,3.4l0,0v111.6l-43.5-75.3c-16.8-28.1-40.7-39.6-76.7-39.6h-31.6
            c-1.9,0-3.3,1.5-3.3,3.4l0,0v172.6c0,21.1,19.6,31.9,38.2,31.9h24.4v0c1.8,0,3.3-1.5,3.4-3.3v-117l51.8,79.5
            c22.1,33.7,44.9,40.8,72.8,40.8h27.3c1.9,0,3.4-1.5,3.4-3.4V185.8C401,169.5,384.7,154.7,366.8,154.7z"></path>
    </g>
</svg>
