<?xml version="1.0" encoding="utf-8"?>
<!-- Generator: Adobe Illustrator 21.1.0, SVG Export Plug-In . SVG Version: 6.00 Build 0)  -->
<svg version="1.1" id="Layer_1" xmlns="http://www.w3.org/2000/svg" xmlns:xlink="http://www.w3.org/1999/xlink" x="0px" y="0px"
	 viewBox="0 0 119.8 105.5" style="enable-background:new 0 0 119.8 105.5;" xml:space="preserve">
<style type="text/css">
	.st0{clip-path:url(#SVGID_2_);fill:#FFE500;}
	.st1{clip-path:url(#SVGID_2_);fill:#FFFFFF;}
	.st2{clip-path:url(#SVGID_2_);fill:#00713C;}
	.st3{clip-path:url(#SVGID_2_);fill:#C71748;}
</style>
<g>
	<defs>
		<rect id="SVGID_1_" x="-45" y="-52.5" width="209.8" height="209.8"/>
	</defs>
	<clipPath id="SVGID_2_">
		<use xlink:href="#SVGID_1_"  style="overflow:visible;"/>
	</clipPath>
	<path class="st0" d="M107,104.9c6.7,0,12.1-5.4,12.1-12.1v-80c0-6.7-5.4-12.1-12.1-12.1H12.7C6,0.6,0.6,6,0.6,12.7v80
		c0,6.7,5.4,12.1,12.1,12.1H107z"/>
	<path class="st1" d="M45,43.3c-6.8,0-10.9,5.6-10.9,11.3c0,5.8,4,11.3,10.9,11.3s10.9-5.6,10.9-11.3C55.9,48.9,51.9,43.3,45,43.3
		 M84.3,43.2l0,3.8h1.9c1.4,0,2-0.7,2-1.9c0-1.2-0.6-1.9-2-1.9H84.3z M84.6,61.2l0,4.4l1.9,0c1.6,0,2.5-0.7,2.5-2.2
		c0-1.5-0.9-2.2-2.5-2.2C86.6,61.2,85.2,61.2,84.6,61.2 M66.1,81.8v-0.1c-5.4,4-12.5,6.5-21.1,6.5c-22.7,0-34.3-17.2-34.3-33.5
		S22.3,21.2,45,21.2c1.4,0,2.8,0.1,4.1,0.2l0.5-4.1c0,0,4.8-0.4,10.3,1.4c4.5,1.8,9,7.1,9,7.1l-1.7,1.7l22.7,0
		c8.4-0.1,17.7,4.6,17.6,14.2c0,5-0.5,8.9-4.1,11.7c2.9,2.1,5.8,5.6,5.8,12.8c0,9.3-7.3,15.2-16.2,15.5H66.1z"/>
	<path class="st2" d="M82.5,41.4l0,7.6h3.9c2.9,0,4-1.4,4-3.9c0-2.4-1.1-3.8-4-3.8H82.5z M82.6,59.2l0,8.5l3.8,0.1
		c3.1,0,4.9-1.3,4.9-4.3c0-3-1.8-4.3-4.9-4.3C86.4,59.2,83.6,59.1,82.6,59.2 M69.1,30.3h19.4c9.5,0,16.7,3.6,16.7,12.9
		c0,4.9-1.9,8.3-6.1,10.4c4.7,2.2,7.7,5.8,7.7,11.8c0,8.7-6.3,13.8-15.8,13.8H69.1c6.8-6.5,10.2-15.6,10.2-24.5
		C79.3,45.8,75.9,36.7,69.1,30.3"/>
	<path class="st2" d="M45,23.7c1.3,0,2.6,0.1,3.8,0.2l-2.3,17.3c-0.5,0-1-0.1-1.5-0.1c-8.2,0-13,6.6-13,13.5c0,6.9,4.8,13.5,13,13.5
		c8.2,0,13-6.6,13-13.5c0-4.5-2.1-9-5.8-11.5l12.8-13.2c7.8,6,11.8,15.5,11.8,24.6c0,15.1-10.8,30.9-31.7,30.9S13.3,69.8,13.3,54.7
		C13.3,39.6,24,23.7,45,23.7"/>
	<path class="st3" d="M48.4,41.6L52,19.9c0,0,4.5-0.2,7.7,1.5c3.2,1.4,5.5,4.5,5.5,4.5L50.3,42.2C49.5,41.8,48.4,41.6,48.4,41.6"/>
	<path class="st2" d="M107,105.5H12.7c-7,0-12.7-5.7-12.7-12.7v-80C0,5.7,5.7,0,12.7,0H107c7,0,12.7,5.7,12.7,12.7v80
		C119.7,99.8,114,105.5,107,105.5 M12.7,1.2C6.4,1.2,1.2,6.4,1.2,12.7v80c0,6.4,5.2,11.5,11.5,11.5H107c6.4,0,11.5-5.2,11.5-11.5
		v-80c0-6.4-5.2-11.5-11.5-11.5H12.7z"/>
</g>
</svg>
