<?xml version="1.0" encoding="utf-8"?>
<!-- Generator: Adobe Illustrator 21.1.0, SVG Export Plug-In . SVG Version: 6.00 Build 0)  -->
<svg version="1.1" id="Layer_1" xmlns="http://www.w3.org/2000/svg" xmlns:xlink="http://www.w3.org/1999/xlink" x="0px" y="0px"
	 viewBox="0 0 277.6 244.3" style="enable-background:new 0 0 277.6 244.3;" xml:space="preserve">
<style type="text/css">
	.st0{clip-path:url(#SVGID_2_);fill:#00874D;}
	.st1{clip-path:url(#SVGID_2_);fill:#FFED00;}
</style>
<g>
	<defs>
		<rect id="SVGID_1_" width="277.6" height="244.3"/>
	</defs>
	<clipPath id="SVGID_2_">
		<use xlink:href="#SVGID_1_"  style="overflow:visible;"/>
	</clipPath>
	<path class="st0" d="M249.2,244.3c15.7,0,28.4-12.7,28.4-28.4V28.5c0-15.7-12.7-28.5-28.4-28.5H28.5C12.7,0,0,12.7,0,28.5v187.4
		c0,15.7,12.7,28.4,28.5,28.4H249.2z"/>
	<polygon class="st1" points="144.8,121.9 144.8,88.9 183.2,88.9 166.4,121.8 	"/>
	<path class="st1" d="M44.2,154.8h11.2v56.2H44.2V154.8z M72.2,233c9,0,16.3-7.3,16.3-16.3v-66.9c0-9-7.3-16.3-16.3-16.3H27.9
		c-9.1,0-16.3,7.3-16.3,16.3v66.9c0,9,7.3,16.3,16.3,16.3H72.2z"/>
	<rect x="100.2" y="88.6" class="st1" width="33.4" height="144.3"/>
	<rect x="144.6" y="133.5" class="st1" width="33.3" height="99.5"/>
	<path class="st1" d="M222.1,158.9h44.5v-25.4h-61.3c-9,0-16.3,7.3-16.3,16.3v30c0,12.9,13.1,16.3,25.7,16.3h19.6v11.6h-45.3V233
		h61.2c9,0,16.3-7.3,16.3-16.3v-29.6c0-9-7.3-16.3-16.3-16.3h-28.2V158.9z"/>
</g>
</svg>
