<?xml version="1.0" encoding="UTF-8"?>
<svg width="62px" height="57px" viewBox="0 0 62 57" version="1.1" xmlns="http://www.w3.org/2000/svg" xmlns:xlink="http://www.w3.org/1999/xlink">
    <!-- Generator: Sketch 48.2 (47327) - http://www.bohemiancoding.com/sketch -->
    <title>Page 1</title>
    <desc>Created with Sketch.</desc>
    <defs>
        <polygon id="path-1" points="2.81179138e-06 0.00217295865 12.9709933 0.00217295865 12.9709933 11.1929308 2.81179138e-06 11.1929308"></polygon>
        <polygon id="path-3" points="0.0257910256 0.0259675994 40.9001352 0.0259675994 40.9001352 40.8650702 0.0257910256 40.8650702"></polygon>
    </defs>
    <g id="header-/-white-/-selected-/-default" stroke="none" stroke-width="1" fill="none" fill-rule="evenodd" transform="translate(-150.000000, -20.000000)">
        <g id="Page-1" transform="translate(150.000000, 20.000000)">
            <g id="Group-3" transform="translate(0.000000, 45.781046)">
                <mask id="mask-2" fill="white">
                    <use xlink:href="#path-1"></use>
                </mask>
                <g id="Clip-2"></g>
                <path d="M6.47800463,9.31708233 C4.42846177,9.31708233 3.65038286,8.23022077 3.3961688,7.87285847 C3.20170531,7.61973034 2.72299782,6.94977747 2.72299782,5.66939013 C2.72299782,3.12330619 4.60793841,1.9620676 6.3732654,1.90246524 C8.48281188,1.82808822 10.2631538,3.27234006 10.2631538,5.62473034 C10.2631538,7.64958748 8.9465044,9.31708233 6.47800463,9.31708233 M6.07403456,0.0115594993 C2.60327175,0.160593373 2.81179138e-06,1.99192474 2.81179138e-06,5.60992769 C2.81179138e-06,8.885343 2.25902413,11.1929336 6.52288082,11.1929336 C10.7867094,11.1929336 12.9709933,8.84057128 12.9709933,5.49075096 C12.9709933,3.73382459 12.2678205,2.57255803 11.8339892,2.0513592 C10.5175085,0.458241384 8.15357923,-0.0775921944 6.07403456,0.0115594993" id="Fill-1" fill="#000000" mask="url(#mask-2)"></path>
            </g>
            <path d="M20.8109059,50.5421742 L16.5919254,50.5421742 L16.5919254,47.9665409 L20.6911517,47.9665409 C21.7385722,47.9665409 21.9929268,48.2196691 22.1874184,48.4728252 C22.3667545,48.7258134 22.3967563,49.0831477 22.3967563,49.2915041 C22.3967563,50.4678252 21.3796189,50.5421742 20.8109059,50.5421742 M24.0574565,51.584404 C24.8055336,51.0187133 25.0747345,50.0658031 25.0747345,49.2617589 C25.0747345,48.6512965 24.9251191,47.8623068 24.3865767,47.2369018 C23.5037585,46.2245292 22.4118837,46.120323 21.214876,46.120323 L13.943949,46.120323 L13.943949,56.6315763 L16.5919254,56.6315763 L16.5919254,52.4032508 L19.5991644,52.4032508 L22.4267581,56.6315763 L25.538427,56.6315763 L22.3368932,52.2395542 C22.7558502,52.1650373 23.4888842,52.0161713 24.0574565,51.584404" id="Fill-4" fill="#000000"></path>
            <path d="M41.6589247,52.7904339 L43.2597619,49.2914677 C43.3195125,49.1575163 43.3645011,49.0235649 43.4242517,48.8896135 C43.4542535,48.7704368 43.4842553,48.6512601 43.5289628,48.5173087 C43.5438372,48.6663426 43.5738671,48.800294 43.6188558,48.9342454 C43.6635914,49.0681968 43.7384694,49.2170907 43.7981918,49.3510701 L45.3691959,52.7904339 L41.6589247,52.7904339 Z M42.1226172,46.1202866 L37.4161565,55.8172542 L32.3377519,50.5570804 L37.4843986,46.1202866 L34.0882045,46.1202866 L28.926824,50.7209169 L28.926824,46.1202866 L26.3087088,46.1202866 L26.3087088,56.6317078 L28.926824,56.6317078 L28.926824,53.4751894 L30.5275488,52.1055664 L34.6717918,56.6317078 L37.0209873,56.6317078 L38.2024458,56.6317078 L39.9085846,56.6317078 L40.806249,54.6515105 L46.2218435,54.6515105 L47.1195079,56.6317078 L50.0818707,56.6317078 L44.9802408,46.1202866 L42.1226172,46.1202866 Z" id="Fill-6" fill="#000000"></path>
            <path d="M59.4626591,46.120337 L59.4626591,51.4950144 C59.4626591,52.4032928 59.477646,52.6713355 59.567539,53.6687935 C58.9092142,52.8498068 58.8046156,52.6861381 58.1613059,51.9715535 L52.9846573,46.120337 L50.3516678,46.120337 L50.3516678,56.6316462 L52.8650437,56.6316462 L52.8650437,50.8400321 C52.8650437,50.0360159 52.8500569,49.8572368 52.7752913,49.0533325 C53.358738,49.7976624 53.5832315,50.0658451 54.1366483,50.7060807 L59.3729068,56.6316462 L61.991022,56.6316462 L61.991022,46.120337 L59.4626591,46.120337 Z" id="Fill-8" fill="#000000"></path>
            <g id="Group-12" transform="translate(11.022222, 0.001959)">
                <mask id="mask-4" fill="white">
                    <use xlink:href="#path-3"></use>
                </mask>
                <g id="Clip-11"></g>
                <path d="M33.8001168,33.3999461 C38.0536261,29.0628533 40.6465477,23.5468931 40.8858873,17.4336781 C41.0450066,13.366195 39.8474084,9.60931576 38.4905785,7.45061915 C37.2084579,5.41095935 35.5623227,4.04248365 34.9863835,3.70963387 C34.5845504,3.51132312 34.3715291,3.68752784 34.5481658,3.8633408 C34.9222746,4.23561767 35.1396824,4.41366922 35.42432,4.80088866 C35.9532742,5.52070604 35.4141413,5.78494315 34.9869459,5.3388489 C33.8658003,4.30000501 32.1279164,2.38357938 27.7604733,1.00710074 C24.1476025,-0.131640059 20.4385966,-0.124868336 18.707686,0.256027099 C18.0496424,0.400835641 17.6241622,0.749467452 17.8984805,1.55533049 C18.0081685,1.87760295 18.6568769,2.77729072 19.1290329,3.27056318 C20.1986665,4.38859705 21.503422,5.57280913 22.3177168,6.08468984 C23.4748533,6.81195052 26.7848098,8.37831723 28.5552542,10.0983629 C31.780154,13.2312362 32.0108615,18.5043658 29.4878692,22.9003334 C27.0162483,27.2065897 22.5624551,29.8078548 18.4177903,29.7689594 C14.0449486,29.7278533 10.5427499,26.3157723 10.3760388,20.9117973 C10.2715527,17.5348342 11.6411481,14.0981007 13.7206928,11.6654292 C14.8167853,10.3830551 16.0049078,9.56479588 17.0401531,8.9459947 C17.9368334,8.41002121 19.4119835,7.92377231 19.6858801,7.76290191 C20.1570801,7.48610074 20.0746946,6.8870271 19.75311,6.6025028 C19.4153858,6.25541001 18.4400034,5.51645272 17.755501,4.81160589 C17.3879155,4.43339676 16.8513413,3.68103594 16.1441758,3.35649691 C15.6707263,3.13929809 14.75352,3.20309779 14.4422828,3.27324948 C12.8316606,3.63696377 10.4300815,4.94866333 8.16242794,6.86673991 C5.14062385,9.42295346 3.62894857,13.2891317 2.80020118,15.9053393 C2.7134293,16.1798739 2.35011773,16.1521434 2.2929259,15.9270536 C2.14471637,14.6867649 2.24467556,14.4842009 1.90636082,14.1716383 C1.5968107,13.8856869 1.11953723,14.5909814 1.08627374,14.6783143 C-0.662351202,19.279952 -0.330306757,26.8076736 2.69504018,32.195139 C5.74628372,37.629139 10.9743318,40.2150698 15.5082329,40.7475175 C22.0520588,41.5158842 28.8431536,38.4548415 33.8001168,33.3999461" id="Fill-10" fill="#eb018b" mask="url(#mask-4)"></path>
            </g>
        </g>
    </g>
</svg>