<?xml version="1.0" encoding="utf-8"?>
<!-- Generator: Adobe Illustrator 21.1.0, SVG Export Plug-In . SVG Version: 6.00 Build 0)  -->
<svg version="1.1" xmlns="http://www.w3.org/2000/svg" xmlns:xlink="http://www.w3.org/1999/xlink" x="0px" y="0px"
	 viewBox="0 0 73.7 57" style="enable-background:new 0 0 73.7 57;" xml:space="preserve">
<style type="text/css">
	.st0{filter:url(#Adobe_OpacityMaskFilter);}
	.st1{fill:#FFFFFF;}
	.st2{mask:url(#mask-2);}
	.st3{filter:url(#Adobe_OpacityMaskFilter_1_);}
	.st4{mask:url(#mask-4);fill:#EB018B;}
</style>
<g id="Layer_1">
	<title>Page 1</title>
	<desc>Created with Sketch.</desc>
	<g id="header-_x2F_-white-_x2F_-selected-_x2F_-default" transform="translate(-150.000000, -20.000000)">
		<g id="Page-1" transform="translate(150.000000, 20.000000)">
			<g id="Group-3" transform="translate(0.000000, 45.781046)">
				<g id="Clip-2">
				</g>
				<defs>
					<filter id="Adobe_OpacityMaskFilter" filterUnits="userSpaceOnUse" x="5.8" y="0" width="13" height="11.2">
						<feColorMatrix  type="matrix" values="1 0 0 0 0  0 1 0 0 0  0 0 1 0 0  0 0 0 1 0"/>
					</filter>
				</defs>
				<mask maskUnits="userSpaceOnUse" x="5.8" y="0" width="13" height="11.2" id="mask-2">
					<g class="st0">
						<polygon id="path-1" class="st1" points="5.8,0 18.8,0 18.8,11.2 5.8,11.2 						"/>
					</g>
				</mask>
				<path id="Fill-1" class="st2" d="M12.3,9.3c-2,0-2.8-1.1-3.1-1.4C9,7.6,8.6,6.9,8.6,5.7c0-2.5,1.9-3.7,3.7-3.8
					c2.1-0.1,3.9,1.4,3.9,3.7C16.1,7.6,14.8,9.3,12.3,9.3 M11.9,0C8.4,0.2,5.8,2,5.8,5.6c0,3.3,2.3,5.6,6.5,5.6
					c4.3,0,6.4-2.4,6.4-5.7c0-1.8-0.7-2.9-1.1-3.4C16.4,0.5,14-0.1,11.9,0"/>
			</g>
			<path id="Fill-4" d="M26.6,50.5h-4.2V48h4.1c1,0,1.3,0.3,1.5,0.5c0.2,0.3,0.2,0.6,0.2,0.8C28.2,50.5,27.2,50.5,26.6,50.5
				 M29.9,51.6c0.7-0.6,1-1.5,1-2.3c0-0.6-0.1-1.4-0.7-2c-0.9-1-2-1.1-3.2-1.1h-7.3v10.5h2.6v-4.2h3l2.8,4.2h3.1l-3.2-4.4
				C28.6,52.2,29.3,52,29.9,51.6"/>
			<path id="Fill-6" d="M47.5,52.8l1.6-3.5c0.1-0.1,0.1-0.3,0.2-0.4c0-0.1,0.1-0.2,0.1-0.4c0,0.1,0,0.3,0.1,0.4
				c0,0.1,0.1,0.3,0.2,0.4l1.6,3.4H47.5z M48,46.1l-4.7,9.7l-5.1-5.3l5.1-4.4h-3.4l-5.2,4.6v-4.6h-2.6v10.5h2.6v-3.2l1.6-1.4
				l4.1,4.5h2.3H44h1.7l0.9-2h5.4l0.9,2h3l-5.1-10.5H48z"/>
			<path id="Fill-8" d="M65.3,46.1v5.4c0,0.9,0,1.2,0.1,2.2c-0.7-0.8-0.8-1-1.4-1.7l-5.2-5.9h-2.6v10.5h2.5v-5.8c0-0.8,0-1-0.1-1.8
				c0.6,0.7,0.8,1,1.4,1.7l5.2,5.9h2.6V46.1H65.3z"/>
			<g id="Group-12" transform="translate(11.022222, 0.001959)">
				<g id="Clip-11">
				</g>
				<defs>
					<filter id="Adobe_OpacityMaskFilter_1_" filterUnits="userSpaceOnUse" x="5.9" y="0" width="40.9" height="40.8">
						<feColorMatrix  type="matrix" values="1 0 0 0 0  0 1 0 0 0  0 0 1 0 0  0 0 0 1 0"/>
					</filter>
				</defs>
				<mask maskUnits="userSpaceOnUse" x="5.9" y="0" width="40.9" height="40.8" id="mask-4">
					<g class="st3">
						<polygon id="path-3" class="st1" points="5.9,0 46.7,0 46.7,40.9 5.9,40.9 						"/>
					</g>
				</mask>
				<path id="Fill-10" class="st4" d="M39.6,33.4c4.3-4.3,6.8-9.9,7.1-16c0.2-4.1-1-7.8-2.4-10c-1.3-2-2.9-3.4-3.5-3.7
					c-0.4-0.2-0.6,0-0.4,0.2c0.4,0.4,0.6,0.6,0.9,0.9c0.5,0.7,0,1-0.4,0.5c-1.1-1-2.9-3-7.2-4.3c-3.6-1.1-7.3-1.1-9.1-0.8
					c-0.7,0.1-1.1,0.5-0.8,1.3c0.1,0.3,0.8,1.2,1.2,1.7c1.1,1.1,2.4,2.3,3.2,2.8c1.2,0.7,4.5,2.3,6.2,4c3.2,3.1,3.5,8.4,0.9,12.8
					c-2.5,4.3-6.9,6.9-11.1,6.9c-4.4,0-7.9-3.5-8-8.9c-0.1-3.4,1.3-6.8,3.3-9.2c1.1-1.3,2.3-2.1,3.3-2.7c0.9-0.5,2.4-1,2.6-1.2
					c0.5-0.3,0.4-0.9,0.1-1.2c-0.3-0.3-1.3-1.1-2-1.8c-0.4-0.4-0.9-1.1-1.6-1.5c-0.5-0.2-1.4-0.2-1.7-0.1c-1.6,0.4-4,1.7-6.3,3.6
					c-3,2.6-4.5,6.4-5.4,9c-0.1,0.3-0.5,0.2-0.5,0c-0.1-1.2,0-1.4-0.4-1.8c-0.3-0.3-0.8,0.4-0.8,0.5c-1.7,4.6-1.4,12.1,1.6,17.5
					c3.1,5.4,8.3,8,12.8,8.6C27.9,41.5,34.7,38.5,39.6,33.4"/>
			</g>
		</g>
	</g>
</g>
<g id="X">
	<g>
		<path d="M62.6,15.2c0-1.5,0.6-2.9,1.2-4.2c0.5-1.1,0.2-1.9-0.5-2.7c-1.1-1.3-2.2-2.6-3.4-3.9c-0.4-0.4-0.5-1-0.4-1.5
			c0.1-0.7,0.6-0.9,1.2-0.6c0.5,0.3,1,0.7,1.5,1.1c1,0.8,2,1.6,3,2.4c0.6,0.5,0.7,0.4,1.2-0.2c0.7-1,1.3-2.1,2-3.1
			c1-1.5,1.5-1.6,3.2-0.9c0.6,0.3,1.2,0.6,1.8,1c0.3,0.2,0.4,0.4,0.2,0.8c-0.5,0.8-0.9,1.6-1.4,2.4c-0.7,1.1-1.5,2.1-2.2,3.1
			c-0.4,0.6-0.4,0.9,0.1,1.5c0.7,0.8,1.4,1.5,2.1,2.3c0.3,0.4,0.6,0.8,0.9,1.2c0.2,0.3,0.2,0.6,0,1c-0.1,0.2-0.2,0.6-0.1,0.8
			c0.1,0.4,0.3,1-0.2,1.2c-0.3,0.1-0.9,0-1.2-0.2c-1-0.9-2-1.8-2.9-2.7c-0.4-0.4-0.8-0.8-1.1-1.3c-0.4-0.4-0.7-0.4-1,0
			c-0.7,1-1.5,1.9-2.2,2.9c-0.2,0.3-0.6,0.8-0.6,0.8s-0.4,0.5-0.7,0.4c-0.3,0-0.4-0.7-0.4-0.7S62.6,15.5,62.6,15.2z"/>
	</g>
</g>
</svg>
